<?xml version="1.0" encoding="utf-8"?>
<!-- Generator: Adobe Illustrator 24.3.0, SVG Export Plug-In . SVG Version: 6.00 Build 0)  -->
<svg version="1.1" id="Layer_1" xmlns="http://www.w3.org/2000/svg" xmlns:xlink="http://www.w3.org/1999/xlink" x="0px" y="0px"
	 viewBox="0 0 20 16" style="enable-background:new 0 0 20 16;" xml:space="preserve">
<style type="text/css">
	.st0{fill:#1b1b1b;}
</style>
<path class="st0" d="M20,0c-0.8,0.5-2.3,1.1-3.3,1.3c0,0,0,0-0.1,0C15.8,0.5,14.7,0,13.5,0C11,0,9,2,9,4.5C9,4.6,9,4.9,9,5
	C5.6,5,3.1,3.2,1.3,1C1.1,1.5,1,2.3,1,3c0,1.4,1.1,2.8,2.8,3.6c-0.3,0.1-0.7,0.1-1,0.1C2.2,6.7,1.6,6.5,1,6.1c0,0,0,0,0,0.1
	c0,2,2.1,3.3,3.9,3.7c-0.4,0.2-1.1,0.2-1.5,0.2C3.2,10.1,2.2,10,2,10c0.5,1.6,2.4,2.5,4.1,2.5C4.8,13.6,3.8,14,1,14H0
	c1.8,1.1,4.1,2,6.3,2C13.8,16,18,10.3,18,5c0-0.1,0-0.3,0-0.4c0,0,0,0,0-0.1V4.4c0-0.1,0-0.3,0-0.3c0.8-0.6,1.5-1.3,2-2.1
	c-0.7,0.3-1.5,0.5-2.3,0.6C18.5,2.1,19.7,0.9,20,0z"/>
</svg>
